<?xml version="1.0" encoding="utf-8"?>
<svg version="1.1" xmlns="http://www.w3.org/2000/svg" xmlns:xlink="http://www.w3.org/1999/xlink" x="0px" y="0px"
	 viewBox="0 0 500 500" style="enable-background:new 0 0 500 500;" xml:space="preserve">
<g id="Background_Simple">
	<g>
		<path style="fill:#92E3A9;" d="M13.33,238.212C1.005,296.617,24.322,353.989,61.455,393.125
			c41.17,43.391,93.691,63.231,150.956,52.935c22.693-4.08,45.171-10.358,68.114-11.952c39.454-2.741,81.341,3.832,120.305-4.51
			c49.282-10.551,92.02-59.258,88.383-116.476c-1.261-19.846-7.055-38.866-14.243-56.893
			c-17.674-44.327-43.88-83.728-73.335-119.278c-33.203-40.073-71.954-76.445-118.753-93.901
			C179.623,4.535,75.488,94.877,28.039,195.108C21.584,208.745,16.477,223.3,13.33,238.212z"/>
		<path style="opacity:0.7;fill:#FFFFFF;" d="M13.33,238.212C1.005,296.617,24.322,353.989,61.455,393.125
			c41.17,43.391,93.691,63.231,150.956,52.935c22.693-4.08,45.171-10.358,68.114-11.952c39.454-2.741,81.341,3.832,120.305-4.51
			c49.282-10.551,92.02-59.258,88.383-116.476c-1.261-19.846-7.055-38.866-14.243-56.893
			c-17.674-44.327-43.88-83.728-73.335-119.278c-33.203-40.073-71.954-76.445-118.753-93.901
			C179.623,4.535,75.488,94.877,28.039,195.108C21.584,208.745,16.477,223.3,13.33,238.212z"/>
	</g>
</g>
<g id="Files">
	<g style="opacity:0.3;">
		<g>
			<polygon style="fill:none;stroke:#000000;stroke-linecap:round;stroke-linejoin:round;stroke-miterlimit:10;" points="
				318.429,215.284 318.429,219.704 284.799,219.704 284.799,213.554 299.269,213.554 299.269,215.284 			"/>
			<path style="fill:none;stroke:#000000;stroke-linecap:round;stroke-linejoin:round;stroke-miterlimit:10;" d="M318.429,219.704
				v19.074c0,0.971-0.787,1.758-1.758,1.758h-30.115c-0.971,0-1.758-0.787-1.758-1.758v-19.074H318.429z"/>
		</g>
		<g>
			<polygon style="fill:none;stroke:#000000;stroke-linecap:round;stroke-linejoin:round;stroke-miterlimit:10;" points="
				318.429,253.953 318.429,258.373 284.799,258.373 284.799,252.223 299.269,252.223 299.269,253.953 			"/>
			<path style="fill:none;stroke:#000000;stroke-linecap:round;stroke-linejoin:round;stroke-miterlimit:10;" d="M318.429,258.373
				v19.074c0,0.971-0.787,1.758-1.758,1.758h-30.115c-0.971,0-1.758-0.787-1.758-1.758v-19.074H318.429z"/>
		</g>
		<g>
			<polygon style="fill:none;stroke:#000000;stroke-linecap:round;stroke-linejoin:round;stroke-miterlimit:10;" points="
				368.396,215.284 368.396,219.704 334.766,219.704 334.766,213.554 349.236,213.554 349.236,215.284 			"/>
			<path style="fill:none;stroke:#000000;stroke-linecap:round;stroke-linejoin:round;stroke-miterlimit:10;" d="M368.396,219.704
				v19.074c0,0.971-0.787,1.758-1.758,1.758h-30.115c-0.971,0-1.758-0.787-1.758-1.758v-19.074H368.396z"/>
		</g>
		<g>
			<polygon style="fill:none;stroke:#000000;stroke-linecap:round;stroke-linejoin:round;stroke-miterlimit:10;" points="
				368.396,253.953 368.396,258.373 334.766,258.373 334.766,252.223 349.236,252.223 349.236,253.953 			"/>
			<path style="fill:none;stroke:#000000;stroke-linecap:round;stroke-linejoin:round;stroke-miterlimit:10;" d="M368.396,258.373
				v19.074c0,0.971-0.787,1.758-1.758,1.758h-30.115c-0.971,0-1.758-0.787-1.758-1.758v-19.074H368.396z"/>
		</g>
		<g>
			<polygon style="fill:none;stroke:#000000;stroke-linecap:round;stroke-linejoin:round;stroke-miterlimit:10;" points="
				419.935,215.284 419.935,219.704 386.305,219.704 386.305,213.554 400.775,213.554 400.775,215.284 			"/>
			<path style="fill:none;stroke:#000000;stroke-linecap:round;stroke-linejoin:round;stroke-miterlimit:10;" d="M419.935,219.704
				v19.074c0,0.971-0.787,1.758-1.758,1.758h-30.115c-0.971,0-1.758-0.787-1.758-1.758v-19.074H419.935z"/>
		</g>
		<g>
			<polygon style="fill:none;stroke:#000000;stroke-linecap:round;stroke-linejoin:round;stroke-miterlimit:10;" points="
				419.935,253.953 419.935,258.373 386.305,258.373 386.305,252.223 400.775,252.223 400.775,253.953 			"/>
			<path style="fill:none;stroke:#000000;stroke-linecap:round;stroke-linejoin:round;stroke-miterlimit:10;" d="M419.935,258.373
				v19.074c0,0.971-0.787,1.758-1.758,1.758h-30.115c-0.971,0-1.758-0.787-1.758-1.758v-19.074H419.935z"/>
		</g>
		<g>
			<polygon style="fill:none;stroke:#000000;stroke-linecap:round;stroke-linejoin:round;stroke-miterlimit:10;" points="
				471.474,215.284 471.474,219.704 437.844,219.704 437.844,213.554 452.314,213.554 452.314,215.284 			"/>
			<path style="fill:none;stroke:#000000;stroke-linecap:round;stroke-linejoin:round;stroke-miterlimit:10;" d="M471.474,219.704
				v19.074c0,0.971-0.787,1.758-1.758,1.758h-30.115c-0.971,0-1.758-0.787-1.758-1.758v-19.074H471.474z"/>
		</g>
		<g>
			<polygon style="fill:none;stroke:#000000;stroke-linecap:round;stroke-linejoin:round;stroke-miterlimit:10;" points="
				471.474,253.953 471.474,258.373 437.844,258.373 437.844,252.223 452.314,252.223 452.314,253.953 			"/>
			<path style="fill:none;stroke:#000000;stroke-linecap:round;stroke-linejoin:round;stroke-miterlimit:10;" d="M471.474,258.373
				v19.074c0,0.971-0.787,1.758-1.758,1.758h-30.115c-0.971,0-1.758-0.787-1.758-1.758v-19.074H471.474z"/>
		</g>
	</g>
	<g>
		<g style="opacity:0.3;">
			<g>
				<polygon style="fill:none;stroke:#000000;stroke-linecap:round;stroke-linejoin:round;stroke-miterlimit:10;" points="
					273.588,360.326 273.588,362.279 258.721,362.279 258.721,359.561 265.118,359.561 265.118,360.326 				"/>
				<path style="fill:none;stroke:#000000;stroke-linecap:round;stroke-linejoin:round;stroke-miterlimit:10;" d="M273.588,362.279
					v8.432c0,0.429-0.348,0.777-0.777,0.777h-13.313c-0.429,0-0.777-0.348-0.777-0.777v-8.432H273.588z"/>
			</g>
			<g>
				<polygon style="fill:none;stroke:#000000;stroke-linecap:round;stroke-linejoin:round;stroke-miterlimit:10;" points="
					273.588,377.42 273.588,379.374 258.721,379.374 258.721,376.655 265.118,376.655 265.118,377.42 				"/>
				<path style="fill:none;stroke:#000000;stroke-linecap:round;stroke-linejoin:round;stroke-miterlimit:10;" d="M273.588,379.374
					v8.432c0,0.429-0.348,0.777-0.777,0.777h-13.313c-0.429,0-0.777-0.348-0.777-0.777v-8.432H273.588z"/>
			</g>
			<g>
				<polygon style="fill:none;stroke:#000000;stroke-linecap:round;stroke-linejoin:round;stroke-miterlimit:10;" points="
					295.678,360.326 295.678,362.279 280.811,362.279 280.811,359.561 287.208,359.561 287.208,360.326 				"/>
				<path style="fill:none;stroke:#000000;stroke-linecap:round;stroke-linejoin:round;stroke-miterlimit:10;" d="M295.678,362.279
					v8.432c0,0.429-0.348,0.777-0.777,0.777h-13.313c-0.429,0-0.777-0.348-0.777-0.777v-8.432H295.678z"/>
			</g>
			<g>
				<polygon style="fill:none;stroke:#000000;stroke-linecap:round;stroke-linejoin:round;stroke-miterlimit:10;" points="
					295.678,377.42 295.678,379.374 280.811,379.374 280.811,376.655 287.208,376.655 287.208,377.42 				"/>
				<path style="fill:none;stroke:#000000;stroke-linecap:round;stroke-linejoin:round;stroke-miterlimit:10;" d="M295.678,379.374
					v8.432c0,0.429-0.348,0.777-0.777,0.777h-13.313c-0.429,0-0.777-0.348-0.777-0.777v-8.432H295.678z"/>
			</g>
			<g>
				<polygon style="fill:none;stroke:#000000;stroke-linecap:round;stroke-linejoin:round;stroke-miterlimit:10;" points="
					318.462,360.326 318.462,362.279 303.595,362.279 303.595,359.561 309.992,359.561 309.992,360.326 				"/>
				<path style="fill:none;stroke:#000000;stroke-linecap:round;stroke-linejoin:round;stroke-miterlimit:10;" d="M318.462,362.279
					v8.432c0,0.429-0.348,0.777-0.777,0.777h-13.313c-0.429,0-0.777-0.348-0.777-0.777v-8.432H318.462z"/>
			</g>
			<g>
				<polygon style="fill:none;stroke:#000000;stroke-linecap:round;stroke-linejoin:round;stroke-miterlimit:10;" points="
					318.462,377.42 318.462,379.374 303.595,379.374 303.595,376.655 309.992,376.655 309.992,377.42 				"/>
				<path style="fill:none;stroke:#000000;stroke-linecap:round;stroke-linejoin:round;stroke-miterlimit:10;" d="M318.462,379.374
					v8.432c0,0.429-0.348,0.777-0.777,0.777h-13.313c-0.429,0-0.777-0.348-0.777-0.777v-8.432H318.462z"/>
			</g>
			<g>
				<polygon style="fill:none;stroke:#000000;stroke-linecap:round;stroke-linejoin:round;stroke-miterlimit:10;" points="
					341.246,360.326 341.246,362.279 326.379,362.279 326.379,359.561 332.776,359.561 332.776,360.326 				"/>
				<path style="fill:none;stroke:#000000;stroke-linecap:round;stroke-linejoin:round;stroke-miterlimit:10;" d="M341.246,362.279
					v8.432c0,0.429-0.348,0.777-0.777,0.777h-13.313c-0.429,0-0.777-0.348-0.777-0.777v-8.432H341.246z"/>
			</g>
			<g>
				<polygon style="fill:none;stroke:#000000;stroke-linecap:round;stroke-linejoin:round;stroke-miterlimit:10;" points="
					341.246,377.42 341.246,379.374 326.379,379.374 326.379,376.655 332.776,376.655 332.776,377.42 				"/>
				<path style="fill:none;stroke:#000000;stroke-linecap:round;stroke-linejoin:round;stroke-miterlimit:10;" d="M341.246,379.374
					v8.432c0,0.429-0.348,0.777-0.777,0.777h-13.313c-0.429,0-0.777-0.348-0.777-0.777v-8.432H341.246z"/>
			</g>
		</g>
		<g style="opacity:0.3;">
			<g>
				<polygon style="fill:none;stroke:#000000;stroke-linecap:round;stroke-linejoin:round;stroke-miterlimit:10;" points="
					273.588,396.911 273.588,398.865 258.721,398.865 258.721,396.146 265.118,396.146 265.118,396.911 				"/>
				<path style="fill:none;stroke:#000000;stroke-linecap:round;stroke-linejoin:round;stroke-miterlimit:10;" d="M273.588,398.865
					v8.432c0,0.429-0.348,0.777-0.777,0.777h-13.313c-0.429,0-0.777-0.348-0.777-0.777v-8.432H273.588z"/>
			</g>
			<g>
				<polygon style="fill:none;stroke:#000000;stroke-linecap:round;stroke-linejoin:round;stroke-miterlimit:10;" points="
					273.588,414.005 273.588,415.96 258.721,415.96 258.721,413.241 265.118,413.241 265.118,414.005 				"/>
				<path style="fill:none;stroke:#000000;stroke-linecap:round;stroke-linejoin:round;stroke-miterlimit:10;" d="M273.588,415.96
					v8.432c0,0.429-0.348,0.777-0.777,0.777h-13.313c-0.429,0-0.777-0.348-0.777-0.777v-8.432H273.588z"/>
			</g>
			<g>
				<polygon style="fill:none;stroke:#000000;stroke-linecap:round;stroke-linejoin:round;stroke-miterlimit:10;" points="
					295.678,396.911 295.678,398.865 280.811,398.865 280.811,396.146 287.208,396.146 287.208,396.911 				"/>
				<path style="fill:none;stroke:#000000;stroke-linecap:round;stroke-linejoin:round;stroke-miterlimit:10;" d="M295.678,398.865
					v8.432c0,0.429-0.348,0.777-0.777,0.777h-13.313c-0.429,0-0.777-0.348-0.777-0.777v-8.432H295.678z"/>
			</g>
			<g>
				<polygon style="fill:none;stroke:#000000;stroke-linecap:round;stroke-linejoin:round;stroke-miterlimit:10;" points="
					295.678,414.005 295.678,415.96 280.811,415.96 280.811,413.241 287.208,413.241 287.208,414.005 				"/>
				<path style="fill:none;stroke:#000000;stroke-linecap:round;stroke-linejoin:round;stroke-miterlimit:10;" d="M295.678,415.96
					v8.432c0,0.429-0.348,0.777-0.777,0.777h-13.313c-0.429,0-0.777-0.348-0.777-0.777v-8.432H295.678z"/>
			</g>
			<g>
				<polygon style="fill:none;stroke:#000000;stroke-linecap:round;stroke-linejoin:round;stroke-miterlimit:10;" points="
					318.462,396.911 318.462,398.865 303.595,398.865 303.595,396.146 309.992,396.146 309.992,396.911 				"/>
				<path style="fill:none;stroke:#000000;stroke-linecap:round;stroke-linejoin:round;stroke-miterlimit:10;" d="M318.462,398.865
					v8.432c0,0.429-0.348,0.777-0.777,0.777h-13.313c-0.429,0-0.777-0.348-0.777-0.777v-8.432H318.462z"/>
			</g>
			<g>
				<polygon style="fill:none;stroke:#000000;stroke-linecap:round;stroke-linejoin:round;stroke-miterlimit:10;" points="
					318.462,414.005 318.462,415.96 303.595,415.96 303.595,413.241 309.992,413.241 309.992,414.005 				"/>
				<path style="fill:none;stroke:#000000;stroke-linecap:round;stroke-linejoin:round;stroke-miterlimit:10;" d="M318.462,415.96
					v8.432c0,0.429-0.348,0.777-0.777,0.777h-13.313c-0.429,0-0.777-0.348-0.777-0.777v-8.432H318.462z"/>
			</g>
			<g>
				<polygon style="fill:none;stroke:#000000;stroke-linecap:round;stroke-linejoin:round;stroke-miterlimit:10;" points="
					341.246,396.911 341.246,398.865 326.379,398.865 326.379,396.146 332.776,396.146 332.776,396.911 				"/>
				<path style="fill:none;stroke:#000000;stroke-linecap:round;stroke-linejoin:round;stroke-miterlimit:10;" d="M341.246,398.865
					v8.432c0,0.429-0.348,0.777-0.777,0.777h-13.313c-0.429,0-0.777-0.348-0.777-0.777v-8.432H341.246z"/>
			</g>
			<g>
				<polygon style="fill:none;stroke:#000000;stroke-linecap:round;stroke-linejoin:round;stroke-miterlimit:10;" points="
					341.246,414.005 341.246,415.96 326.379,415.96 326.379,413.241 332.776,413.241 332.776,414.005 				"/>
				<path style="fill:none;stroke:#000000;stroke-linecap:round;stroke-linejoin:round;stroke-miterlimit:10;" d="M341.246,415.96
					v8.432c0,0.429-0.348,0.777-0.777,0.777h-13.313c-0.429,0-0.777-0.348-0.777-0.777v-8.432H341.246z"/>
			</g>
		</g>
		
			<rect x="229.653" y="343.503" style="opacity:0.3;fill:none;stroke:#000000;stroke-linecap:round;stroke-linejoin:round;stroke-miterlimit:10;" width="128.26" height="99.11"/>
		
			<line style="opacity:0.3;fill:none;stroke:#000000;stroke-linecap:round;stroke-linejoin:round;stroke-miterlimit:10;" x1="229.646" y1="351.973" x2="357.248" y2="351.973"/>
		
			<line style="opacity:0.3;fill:none;stroke:#000000;stroke-linecap:round;stroke-linejoin:round;stroke-miterlimit:10;" x1="251.954" y1="352.419" x2="251.954" y2="441.651"/>
	</g>
	<g>
		<g style="opacity:0.3;">
			<g>
				<polygon style="fill:none;stroke:#000000;stroke-linecap:round;stroke-linejoin:round;stroke-miterlimit:10;" points="
					56.5,263.559 56.5,265.513 41.633,265.513 41.633,262.794 48.03,262.794 48.03,263.559 				"/>
				<path style="fill:none;stroke:#000000;stroke-linecap:round;stroke-linejoin:round;stroke-miterlimit:10;" d="M56.5,265.513
					v8.432c0,0.429-0.348,0.777-0.777,0.777H42.41c-0.429,0-0.777-0.348-0.777-0.777v-8.432H56.5z"/>
			</g>
			<g>
				<polygon style="fill:none;stroke:#000000;stroke-linecap:round;stroke-linejoin:round;stroke-miterlimit:10;" points="
					56.5,280.654 56.5,282.608 41.633,282.608 41.633,279.889 48.03,279.889 48.03,280.654 				"/>
				<path style="fill:none;stroke:#000000;stroke-linecap:round;stroke-linejoin:round;stroke-miterlimit:10;" d="M56.5,282.608
					v8.432c0,0.429-0.348,0.777-0.777,0.777H42.41c-0.429,0-0.777-0.348-0.777-0.777v-8.432H56.5z"/>
			</g>
			<g>
				<polygon style="fill:none;stroke:#000000;stroke-linecap:round;stroke-linejoin:round;stroke-miterlimit:10;" points="
					78.59,263.559 78.59,265.513 63.723,265.513 63.723,262.794 70.12,262.794 70.12,263.559 				"/>
				<path style="fill:none;stroke:#000000;stroke-linecap:round;stroke-linejoin:round;stroke-miterlimit:10;" d="M78.59,265.513
					v8.432c0,0.429-0.348,0.777-0.777,0.777H64.5c-0.429,0-0.777-0.348-0.777-0.777v-8.432H78.59z"/>
			</g>
			<g>
				<polygon style="fill:none;stroke:#000000;stroke-linecap:round;stroke-linejoin:round;stroke-miterlimit:10;" points="
					78.59,280.654 78.59,282.608 63.723,282.608 63.723,279.889 70.12,279.889 70.12,280.654 				"/>
				<path style="fill:none;stroke:#000000;stroke-linecap:round;stroke-linejoin:round;stroke-miterlimit:10;" d="M78.59,282.608
					v8.432c0,0.429-0.348,0.777-0.777,0.777H64.5c-0.429,0-0.777-0.348-0.777-0.777v-8.432H78.59z"/>
			</g>
			<g>
				<polygon style="fill:none;stroke:#000000;stroke-linecap:round;stroke-linejoin:round;stroke-miterlimit:10;" points="
					101.374,263.559 101.374,265.513 86.507,265.513 86.507,262.794 92.904,262.794 92.904,263.559 				"/>
				<path style="fill:none;stroke:#000000;stroke-linecap:round;stroke-linejoin:round;stroke-miterlimit:10;" d="M101.374,265.513
					v8.432c0,0.429-0.348,0.777-0.777,0.777H87.284c-0.429,0-0.777-0.348-0.777-0.777v-8.432H101.374z"/>
			</g>
			<g>
				<polygon style="fill:none;stroke:#000000;stroke-linecap:round;stroke-linejoin:round;stroke-miterlimit:10;" points="
					101.374,280.654 101.374,282.608 86.507,282.608 86.507,279.889 92.904,279.889 92.904,280.654 				"/>
				<path style="fill:none;stroke:#000000;stroke-linecap:round;stroke-linejoin:round;stroke-miterlimit:10;" d="M101.374,282.608
					v8.432c0,0.429-0.348,0.777-0.777,0.777H87.284c-0.429,0-0.777-0.348-0.777-0.777v-8.432H101.374z"/>
			</g>
			<g>
				<polygon style="fill:none;stroke:#000000;stroke-linecap:round;stroke-linejoin:round;stroke-miterlimit:10;" points="
					124.159,263.559 124.159,265.513 109.292,265.513 109.292,262.794 115.688,262.794 115.688,263.559 				"/>
				<path style="fill:none;stroke:#000000;stroke-linecap:round;stroke-linejoin:round;stroke-miterlimit:10;" d="M124.159,265.513
					v8.432c0,0.429-0.348,0.777-0.777,0.777h-13.313c-0.429,0-0.777-0.348-0.777-0.777v-8.432H124.159z"/>
			</g>
			<g>
				<polygon style="fill:none;stroke:#000000;stroke-linecap:round;stroke-linejoin:round;stroke-miterlimit:10;" points="
					124.159,280.654 124.159,282.608 109.292,282.608 109.292,279.889 115.688,279.889 115.688,280.654 				"/>
				<path style="fill:none;stroke:#000000;stroke-linecap:round;stroke-linejoin:round;stroke-miterlimit:10;" d="M124.159,282.608
					v8.432c0,0.429-0.348,0.777-0.777,0.777h-13.313c-0.429,0-0.777-0.348-0.777-0.777v-8.432H124.159z"/>
			</g>
		</g>
		<g style="opacity:0.3;">
			<g>
				<polygon style="fill:none;stroke:#000000;stroke-linecap:round;stroke-linejoin:round;stroke-miterlimit:10;" points="
					56.5,300.144 56.5,302.098 41.633,302.098 41.633,299.38 48.03,299.38 48.03,300.144 				"/>
				<path style="fill:none;stroke:#000000;stroke-linecap:round;stroke-linejoin:round;stroke-miterlimit:10;" d="M56.5,302.098
					v8.432c0,0.429-0.348,0.777-0.777,0.777H42.41c-0.429,0-0.777-0.348-0.777-0.777v-8.432H56.5z"/>
			</g>
			<g>
				<polygon style="fill:none;stroke:#000000;stroke-linecap:round;stroke-linejoin:round;stroke-miterlimit:10;" points="
					56.5,317.239 56.5,319.193 41.633,319.193 41.633,316.474 48.03,316.474 48.03,317.239 				"/>
				<path style="fill:none;stroke:#000000;stroke-linecap:round;stroke-linejoin:round;stroke-miterlimit:10;" d="M56.5,319.193
					v8.432c0,0.429-0.348,0.777-0.777,0.777H42.41c-0.429,0-0.777-0.348-0.777-0.777v-8.432H56.5z"/>
			</g>
			<g>
				<polygon style="fill:none;stroke:#000000;stroke-linecap:round;stroke-linejoin:round;stroke-miterlimit:10;" points="
					78.59,300.144 78.59,302.098 63.723,302.098 63.723,299.38 70.12,299.38 70.12,300.144 				"/>
				<path style="fill:none;stroke:#000000;stroke-linecap:round;stroke-linejoin:round;stroke-miterlimit:10;" d="M78.59,302.098
					v8.432c0,0.429-0.348,0.777-0.777,0.777H64.5c-0.429,0-0.777-0.348-0.777-0.777v-8.432H78.59z"/>
			</g>
			<g>
				<polygon style="fill:none;stroke:#000000;stroke-linecap:round;stroke-linejoin:round;stroke-miterlimit:10;" points="
					78.59,317.239 78.59,319.193 63.723,319.193 63.723,316.474 70.12,316.474 70.12,317.239 				"/>
				<path style="fill:none;stroke:#000000;stroke-linecap:round;stroke-linejoin:round;stroke-miterlimit:10;" d="M78.59,319.193
					v8.432c0,0.429-0.348,0.777-0.777,0.777H64.5c-0.429,0-0.777-0.348-0.777-0.777v-8.432H78.59z"/>
			</g>
			<g>
				<polygon style="fill:none;stroke:#000000;stroke-linecap:round;stroke-linejoin:round;stroke-miterlimit:10;" points="
					101.374,300.144 101.374,302.098 86.507,302.098 86.507,299.38 92.904,299.38 92.904,300.144 				"/>
				<path style="fill:none;stroke:#000000;stroke-linecap:round;stroke-linejoin:round;stroke-miterlimit:10;" d="M101.374,302.098
					v8.432c0,0.429-0.348,0.777-0.777,0.777H87.284c-0.429,0-0.777-0.348-0.777-0.777v-8.432H101.374z"/>
			</g>
			<g>
				<polygon style="fill:none;stroke:#000000;stroke-linecap:round;stroke-linejoin:round;stroke-miterlimit:10;" points="
					101.374,317.239 101.374,319.193 86.507,319.193 86.507,316.474 92.904,316.474 92.904,317.239 				"/>
				<path style="fill:none;stroke:#000000;stroke-linecap:round;stroke-linejoin:round;stroke-miterlimit:10;" d="M101.374,319.193
					v8.432c0,0.429-0.348,0.777-0.777,0.777H87.284c-0.429,0-0.777-0.348-0.777-0.777v-8.432H101.374z"/>
			</g>
			<g>
				<polygon style="fill:none;stroke:#000000;stroke-linecap:round;stroke-linejoin:round;stroke-miterlimit:10;" points="
					124.159,300.144 124.159,302.098 109.292,302.098 109.292,299.38 115.688,299.38 115.688,300.144 				"/>
				<path style="fill:none;stroke:#000000;stroke-linecap:round;stroke-linejoin:round;stroke-miterlimit:10;" d="M124.159,302.098
					v8.432c0,0.429-0.348,0.777-0.777,0.777h-13.313c-0.429,0-0.777-0.348-0.777-0.777v-8.432H124.159z"/>
			</g>
			<g>
				<polygon style="fill:none;stroke:#000000;stroke-linecap:round;stroke-linejoin:round;stroke-miterlimit:10;" points="
					124.159,317.239 124.159,319.193 109.292,319.193 109.292,316.474 115.688,316.474 115.688,317.239 				"/>
				<path style="fill:none;stroke:#000000;stroke-linecap:round;stroke-linejoin:round;stroke-miterlimit:10;" d="M124.159,319.193
					v8.432c0,0.429-0.348,0.777-0.777,0.777h-13.313c-0.429,0-0.777-0.348-0.777-0.777v-8.432H124.159z"/>
			</g>
		</g>
		
			<rect x="12.565" y="246.736" style="opacity:0.3;fill:none;stroke:#000000;stroke-linecap:round;stroke-linejoin:round;stroke-miterlimit:10;" width="128.26" height="99.11"/>
		
			<line style="opacity:0.3;fill:none;stroke:#000000;stroke-linecap:round;stroke-linejoin:round;stroke-miterlimit:10;" x1="12.558" y1="255.207" x2="140.161" y2="255.207"/>
		
			<line style="opacity:0.3;fill:none;stroke:#000000;stroke-linecap:round;stroke-linejoin:round;stroke-miterlimit:10;" x1="34.867" y1="255.653" x2="34.867" y2="344.885"/>
	</g>
	<g>
		<g style="opacity:0.3;">
			<g>
				<polygon style="fill:none;stroke:#000000;stroke-linecap:round;stroke-linejoin:round;stroke-miterlimit:10;" points="
					265.949,34.376 265.949,36.33 251.081,36.33 251.081,33.611 257.478,33.611 257.478,34.376 				"/>
				<path style="fill:none;stroke:#000000;stroke-linecap:round;stroke-linejoin:round;stroke-miterlimit:10;" d="M265.949,36.33
					v8.432c0,0.429-0.348,0.777-0.777,0.777h-13.313c-0.429,0-0.777-0.348-0.777-0.777V36.33H265.949z"/>
			</g>
			<g>
				<polygon style="fill:none;stroke:#000000;stroke-linecap:round;stroke-linejoin:round;stroke-miterlimit:10;" points="
					265.949,51.471 265.949,53.425 251.081,53.425 251.081,50.706 257.478,50.706 257.478,51.471 				"/>
				<path style="fill:none;stroke:#000000;stroke-linecap:round;stroke-linejoin:round;stroke-miterlimit:10;" d="M265.949,53.425
					v8.432c0,0.429-0.348,0.777-0.777,0.777h-13.313c-0.429,0-0.777-0.348-0.777-0.777v-8.432H265.949z"/>
			</g>
			<g>
				<polygon style="fill:none;stroke:#000000;stroke-linecap:round;stroke-linejoin:round;stroke-miterlimit:10;" points="
					288.038,34.376 288.038,36.33 273.171,36.33 273.171,33.611 279.568,33.611 279.568,34.376 				"/>
				<path style="fill:none;stroke:#000000;stroke-linecap:round;stroke-linejoin:round;stroke-miterlimit:10;" d="M288.038,36.33
					v8.432c0,0.429-0.348,0.777-0.777,0.777h-13.313c-0.429,0-0.777-0.348-0.777-0.777V36.33H288.038z"/>
			</g>
			<g>
				<polygon style="fill:none;stroke:#000000;stroke-linecap:round;stroke-linejoin:round;stroke-miterlimit:10;" points="
					288.038,51.471 288.038,53.425 273.171,53.425 273.171,50.706 279.568,50.706 279.568,51.471 				"/>
				<path style="fill:none;stroke:#000000;stroke-linecap:round;stroke-linejoin:round;stroke-miterlimit:10;" d="M288.038,53.425
					v8.432c0,0.429-0.348,0.777-0.777,0.777h-13.313c-0.429,0-0.777-0.348-0.777-0.777v-8.432H288.038z"/>
			</g>
			<g>
				<polygon style="fill:none;stroke:#000000;stroke-linecap:round;stroke-linejoin:round;stroke-miterlimit:10;" points="
					310.823,34.376 310.823,36.33 295.956,36.33 295.956,33.611 302.352,33.611 302.352,34.376 				"/>
				<path style="fill:none;stroke:#000000;stroke-linecap:round;stroke-linejoin:round;stroke-miterlimit:10;" d="M310.823,36.33
					v8.432c0,0.429-0.348,0.777-0.777,0.777h-13.313c-0.429,0-0.777-0.348-0.777-0.777V36.33H310.823z"/>
			</g>
			<g>
				<polygon style="fill:none;stroke:#000000;stroke-linecap:round;stroke-linejoin:round;stroke-miterlimit:10;" points="
					310.823,51.471 310.823,53.425 295.956,53.425 295.956,50.706 302.352,50.706 302.352,51.471 				"/>
				<path style="fill:none;stroke:#000000;stroke-linecap:round;stroke-linejoin:round;stroke-miterlimit:10;" d="M310.823,53.425
					v8.432c0,0.429-0.348,0.777-0.777,0.777h-13.313c-0.429,0-0.777-0.348-0.777-0.777v-8.432H310.823z"/>
			</g>
			<g>
				<polygon style="fill:none;stroke:#000000;stroke-linecap:round;stroke-linejoin:round;stroke-miterlimit:10;" points="
					333.607,34.376 333.607,36.33 318.74,36.33 318.74,33.611 325.137,33.611 325.137,34.376 				"/>
				<path style="fill:none;stroke:#000000;stroke-linecap:round;stroke-linejoin:round;stroke-miterlimit:10;" d="M333.607,36.33
					v8.432c0,0.429-0.348,0.777-0.777,0.777h-13.313c-0.429,0-0.777-0.348-0.777-0.777V36.33H333.607z"/>
			</g>
			<g>
				<polygon style="fill:none;stroke:#000000;stroke-linecap:round;stroke-linejoin:round;stroke-miterlimit:10;" points="
					333.607,51.471 333.607,53.425 318.74,53.425 318.74,50.706 325.137,50.706 325.137,51.471 				"/>
				<path style="fill:none;stroke:#000000;stroke-linecap:round;stroke-linejoin:round;stroke-miterlimit:10;" d="M333.607,53.425
					v8.432c0,0.429-0.348,0.777-0.777,0.777h-13.313c-0.429,0-0.777-0.348-0.777-0.777v-8.432H333.607z"/>
			</g>
		</g>
		<g style="opacity:0.3;">
			<g>
				<polygon style="fill:none;stroke:#000000;stroke-linecap:round;stroke-linejoin:round;stroke-miterlimit:10;" points="
					265.949,70.961 265.949,72.915 251.081,72.915 251.081,70.196 257.478,70.196 257.478,70.961 				"/>
				<path style="fill:none;stroke:#000000;stroke-linecap:round;stroke-linejoin:round;stroke-miterlimit:10;" d="M265.949,72.915
					v8.432c0,0.429-0.348,0.777-0.777,0.777h-13.313c-0.429,0-0.777-0.348-0.777-0.777v-8.432H265.949z"/>
			</g>
			<g>
				<polygon style="fill:none;stroke:#000000;stroke-linecap:round;stroke-linejoin:round;stroke-miterlimit:10;" points="
					265.949,88.056 265.949,90.01 251.081,90.01 251.081,87.291 257.478,87.291 257.478,88.056 				"/>
				<path style="fill:none;stroke:#000000;stroke-linecap:round;stroke-linejoin:round;stroke-miterlimit:10;" d="M265.949,90.01
					v8.432c0,0.429-0.348,0.777-0.777,0.777h-13.313c-0.429,0-0.777-0.348-0.777-0.777V90.01H265.949z"/>
			</g>
			<g>
				<polygon style="fill:none;stroke:#000000;stroke-linecap:round;stroke-linejoin:round;stroke-miterlimit:10;" points="
					288.038,70.961 288.038,72.915 273.171,72.915 273.171,70.196 279.568,70.196 279.568,70.961 				"/>
				<path style="fill:none;stroke:#000000;stroke-linecap:round;stroke-linejoin:round;stroke-miterlimit:10;" d="M288.038,72.915
					v8.432c0,0.429-0.348,0.777-0.777,0.777h-13.313c-0.429,0-0.777-0.348-0.777-0.777v-8.432H288.038z"/>
			</g>
			<g>
				<polygon style="fill:none;stroke:#000000;stroke-linecap:round;stroke-linejoin:round;stroke-miterlimit:10;" points="
					288.038,88.056 288.038,90.01 273.171,90.01 273.171,87.291 279.568,87.291 279.568,88.056 				"/>
				<path style="fill:none;stroke:#000000;stroke-linecap:round;stroke-linejoin:round;stroke-miterlimit:10;" d="M288.038,90.01
					v8.432c0,0.429-0.348,0.777-0.777,0.777h-13.313c-0.429,0-0.777-0.348-0.777-0.777V90.01H288.038z"/>
			</g>
			<g>
				<polygon style="fill:none;stroke:#000000;stroke-linecap:round;stroke-linejoin:round;stroke-miterlimit:10;" points="
					310.823,70.961 310.823,72.915 295.956,72.915 295.956,70.196 302.352,70.196 302.352,70.961 				"/>
				<path style="fill:none;stroke:#000000;stroke-linecap:round;stroke-linejoin:round;stroke-miterlimit:10;" d="M310.823,72.915
					v8.432c0,0.429-0.348,0.777-0.777,0.777h-13.313c-0.429,0-0.777-0.348-0.777-0.777v-8.432H310.823z"/>
			</g>
			<g>
				<polygon style="fill:none;stroke:#000000;stroke-linecap:round;stroke-linejoin:round;stroke-miterlimit:10;" points="
					310.823,88.056 310.823,90.01 295.956,90.01 295.956,87.291 302.352,87.291 302.352,88.056 				"/>
				<path style="fill:none;stroke:#000000;stroke-linecap:round;stroke-linejoin:round;stroke-miterlimit:10;" d="M310.823,90.01
					v8.432c0,0.429-0.348,0.777-0.777,0.777h-13.313c-0.429,0-0.777-0.348-0.777-0.777V90.01H310.823z"/>
			</g>
			<g>
				<polygon style="fill:none;stroke:#000000;stroke-linecap:round;stroke-linejoin:round;stroke-miterlimit:10;" points="
					333.607,70.961 333.607,72.915 318.74,72.915 318.74,70.196 325.137,70.196 325.137,70.961 				"/>
				<path style="fill:none;stroke:#000000;stroke-linecap:round;stroke-linejoin:round;stroke-miterlimit:10;" d="M333.607,72.915
					v8.432c0,0.429-0.348,0.777-0.777,0.777h-13.313c-0.429,0-0.777-0.348-0.777-0.777v-8.432H333.607z"/>
			</g>
			<g>
				<polygon style="fill:none;stroke:#000000;stroke-linecap:round;stroke-linejoin:round;stroke-miterlimit:10;" points="
					333.607,88.056 333.607,90.01 318.74,90.01 318.74,87.291 325.137,87.291 325.137,88.056 				"/>
				<path style="fill:none;stroke:#000000;stroke-linecap:round;stroke-linejoin:round;stroke-miterlimit:10;" d="M333.607,90.01
					v8.432c0,0.429-0.348,0.777-0.777,0.777h-13.313c-0.429,0-0.777-0.348-0.777-0.777V90.01H333.607z"/>
			</g>
		</g>
		
			<rect x="222.013" y="17.553" style="opacity:0.3;fill:none;stroke:#000000;stroke-linecap:round;stroke-linejoin:round;stroke-miterlimit:10;" width="128.26" height="99.11"/>
		
			<line style="opacity:0.3;fill:none;stroke:#000000;stroke-linecap:round;stroke-linejoin:round;stroke-miterlimit:10;" x1="222.007" y1="26.023" x2="349.609" y2="26.023"/>
		
			<line style="opacity:0.3;fill:none;stroke:#000000;stroke-linecap:round;stroke-linejoin:round;stroke-miterlimit:10;" x1="244.315" y1="26.469" x2="244.315" y2="115.702"/>
	</g>
</g>
<g id="Plant">
	<g>
		
			<ellipse transform="matrix(0.4008 -0.9162 0.9162 0.4008 136.8737 426.4136)" style="fill:#263238;stroke:#263238;stroke-linecap:round;stroke-linejoin:round;stroke-miterlimit:10;" cx="394.409" cy="108.574" rx="47.499" ry="47.499"/>
		
			<ellipse transform="matrix(0.2934 -0.956 0.956 0.2934 176.9212 447.0593)" style="fill:#FFFFFF;stroke:#263238;stroke-linecap:round;stroke-linejoin:round;stroke-miterlimit:10;" cx="390.869" cy="103.853" rx="47.499" ry="47.499"/>
		
			<ellipse transform="matrix(0.1906 -0.9817 0.9817 0.1906 214.4262 467.7653)" style="fill:#263238;stroke:#263238;stroke-linecap:round;stroke-linejoin:round;stroke-miterlimit:10;" cx="390.869" cy="103.853" rx="42.778" ry="42.779"/>
		<g>
			<path style="fill:#92E3A9;" d="M385.853,71.696c0,0-4.721-11.801-12.981-20.062c-8.261-8.261-41.893-13.571-41.893-13.571
				s7.081,6.491,14.751,17.111c7.671,10.621,33.043,34.813,33.043,34.813s-12.391-10.621-23.602-11.801
				c-11.211-1.18-39.533,4.72-41.303,4.72s10.621,4.72,19.472,8.851c8.851,4.13,43.073,7.671,43.073,7.671
				s-14.751,4.13-24.782,7.671c-10.031,3.54-19.472,29.502-19.472,29.502s12.981-11.801,24.192-14.751
				c11.211-2.95,27.142-8.261,27.142-8.261s-10.031,11.211-12.391,18.881c-2.36,7.671-0.59,25.372-0.59,25.372
				s5.31-16.521,11.801-23.012c6.491-6.491,13.571-17.701,13.571-17.701s4.13,6.491,8.851,16.521
				c4.72,10.031,7.671,24.782,7.671,24.782s7.671-16.521,7.081-24.782c-0.59-8.261-9.441-23.012-9.441-23.012
				s5.901-4.13,14.751-0.59c8.851,3.54,24.192,18.292,24.192,18.292s-3.54-19.472-9.441-27.142
				c-5.901-7.671-31.273-10.031-31.273-10.031s14.161-8.261,23.012-10.031c8.851-1.77,20.652,2.36,20.652,2.36
				s-13.571-18.882-24.192-20.062c-10.621-1.18-26.552,15.341-26.552,15.341s3.54-17.701,4.72-23.602
				c1.18-5.9-1.18-20.652-1.18-20.652s-6.491,3.54-14.161,14.751C382.903,60.485,385.853,71.696,385.853,71.696z"/>
			<path style="opacity:0.35;" d="M385.853,71.696c0,0-4.721-11.801-12.981-20.062c-8.261-8.261-41.893-13.571-41.893-13.571
				s7.081,6.491,14.751,17.111c7.671,10.621,33.043,34.813,33.043,34.813s-12.391-10.621-23.602-11.801
				c-11.211-1.18-39.533,4.72-41.303,4.72s10.621,4.72,19.472,8.851c8.851,4.13,43.073,7.671,43.073,7.671
				s-14.751,4.13-24.782,7.671c-10.031,3.54-19.472,29.502-19.472,29.502s12.981-11.801,24.192-14.751
				c11.211-2.95,27.142-8.261,27.142-8.261s-10.031,11.211-12.391,18.881c-2.36,7.671-0.59,25.372-0.59,25.372
				s5.31-16.521,11.801-23.012c6.491-6.491,13.571-17.701,13.571-17.701s4.13,6.491,8.851,16.521
				c4.72,10.031,7.671,24.782,7.671,24.782s7.671-16.521,7.081-24.782c-0.59-8.261-9.441-23.012-9.441-23.012
				s5.901-4.13,14.751-0.59c8.851,3.54,24.192,18.292,24.192,18.292s-3.54-19.472-9.441-27.142
				c-5.901-7.671-31.273-10.031-31.273-10.031s14.161-8.261,23.012-10.031c8.851-1.77,20.652,2.36,20.652,2.36
				s-13.571-18.882-24.192-20.062c-10.621-1.18-26.552,15.341-26.552,15.341s3.54-17.701,4.72-23.602
				c1.18-5.9-1.18-20.652-1.18-20.652s-6.491,3.54-14.161,14.751C382.903,60.485,385.853,71.696,385.853,71.696z"/>
			<path style="fill:none;stroke:#263238;stroke-width:0.5;stroke-linecap:round;stroke-linejoin:round;stroke-miterlimit:10;" d="
				M397.477,53.735c0.41-1.696,0.861-3.384,1.357-5.051"/>
			<path style="fill:none;stroke:#263238;stroke-width:0.5;stroke-linecap:round;stroke-linejoin:round;stroke-miterlimit:10;" d="
				M358.067,53.731c5.528,4.033,12.435,9.582,15.986,14.424c6.491,8.851,19.472,27.732,19.472,27.732s-0.87-18.713,2.995-37.826"/>
			<path style="fill:none;stroke:#263238;stroke-width:0.5;stroke-linecap:round;stroke-linejoin:round;stroke-miterlimit:10;" d="
				M349.86,48.094c0,0,1.726,1.093,4.297,2.866"/>
			<path style="fill:none;stroke:#263238;stroke-width:0.5;stroke-linecap:round;stroke-linejoin:round;stroke-miterlimit:10;" d="
				M393.524,95.888c0,0,22.422-22.422,31.863-24.192c9.441-1.77,17.701,5.31,17.701,5.31"/>
			<path style="fill:none;stroke:#263238;stroke-width:0.5;stroke-linecap:round;stroke-linejoin:round;stroke-miterlimit:10;" d="
				M353.447,114.639c-5.456,3.478-5.947,5.441-5.947,5.441"/>
			<path style="fill:none;stroke:#263238;stroke-width:0.5;stroke-linecap:round;stroke-linejoin:round;stroke-miterlimit:10;" d="
				M442.498,116.539c0,0-3.54-8.851-15.931-12.981c-12.391-4.13-31.862-4.72-31.862-4.72s-27.304,8.936-37.287,13.602"/>
			<path style="fill:none;stroke:#263238;stroke-width:0.5;stroke-linecap:round;stroke-linejoin:round;stroke-miterlimit:10;" d="
				M382.788,95.469c6.592,1.918,11.916,3.369,11.916,3.369"/>
			<path style="fill:none;stroke:#263238;stroke-width:0.5;stroke-linecap:round;stroke-linejoin:round;stroke-miterlimit:10;" d="
				M341.22,84.986c6.415,0.388,14.664,1.261,19.261,3.231c3.744,1.605,11.124,3.936,18.075,6.006"/>
			<path style="fill:none;stroke:#263238;stroke-width:0.5;stroke-linecap:round;stroke-linejoin:round;stroke-miterlimit:10;" d="
				M332.159,84.677c0,0,2.155,0,5.343,0.125"/>
			<path style="fill:none;stroke:#263238;stroke-width:0.5;stroke-linecap:round;stroke-linejoin:round;stroke-miterlimit:10;" d="
				M393.524,102.378c0,0-16.521,24.782-17.702,30.683c-1.18,5.9-1.18,10.621-1.18,10.621"/>
			<path style="fill:none;stroke:#263238;stroke-width:0.5;stroke-linecap:round;stroke-linejoin:round;stroke-miterlimit:10;" d="
				M400.868,110.175c3.182,4.107,6.998,9.585,8.587,14.035c2.95,8.26,4.13,16.521,4.13,16.521"/>
			<path style="fill:none;stroke:#263238;stroke-width:0.5;stroke-linecap:round;stroke-linejoin:round;stroke-miterlimit:10;" d="
				M395.884,104.148c0,0,1.31,1.456,3.138,3.702"/>
		</g>
		<g>
			<path style="fill:#92E3A9;" d="M378.356,76.78c0,0-3.049-12.339-1.157-23.867c1.892-11.528,26.113-35.459,26.113-35.459
				s-1.966,9.402-2.001,22.503c-0.036,13.101-6.535,47.55-6.535,47.55s3.87-15.854,12.288-23.352
				c8.418-7.498,34.865-19.224,36.303-20.257c1.438-1.032-5.874,10.029-10.654,18.546c-4.78,8.517-30.514,31.354-30.514,31.354
				s14.391-5.249,24.604-8.224c10.213-2.975,33.024,12.607,33.024,12.607s-17.427-2.014-28.254,2.128
				c-10.827,4.143-26.865,9.121-26.865,9.121s14.687,3.256,21.078,8.11c6.391,4.854,15.278,20.265,15.278,20.265
				s-13.95-10.323-23.008-11.809c-9.058-1.486-21.348-6.463-21.348-6.463s0.431,7.681,2.447,18.582
				c2.017,10.901,8.224,24.604,8.224,24.604s-15.867-8.946-20.206-16c-4.339-7.054-5.754-24.199-5.754-24.199
				s-7.202,0.086-12.326,8.125c-5.124,8.038-8.982,28.968-8.982,28.968s-8.482-17.881-8.163-27.554
				c0.319-9.672,19.551-26.388,19.551-26.388s-16.321,1.55-24.543,5.274c-8.222,3.724-15.398,13.963-15.398,13.963
				s0.01-23.253,7.949-30.406c7.939-7.154,30.516-3.026,30.516-3.026s-13.2-12.313-17.601-16.418
				c-4.4-4.104-11.087-17.463-11.087-17.463s7.337-0.91,20.107,3.722C374.214,65.953,378.356,76.78,378.356,76.78z"/>
			<path style="fill:none;stroke:#263238;stroke-width:0.5;stroke-linecap:round;stroke-linejoin:round;stroke-miterlimit:10;" d="
				M358.439,68.971c-1.322-1.138-2.673-2.246-4.048-3.312"/>
			<path style="fill:none;stroke:#263238;stroke-width:0.5;stroke-linecap:round;stroke-linejoin:round;stroke-miterlimit:10;" d="
				M390.449,45.981c-2.138,6.5-4.512,15.036-4.572,21.04c-0.11,10.975,0.359,33.883,0.359,33.883s-10.208-15.708-24.495-28.978"/>
			<path style="fill:none;stroke:#263238;stroke-width:0.5;stroke-linecap:round;stroke-linejoin:round;stroke-miterlimit:10;" d="
				M393.826,36.615c0,0-0.764,1.894-1.819,4.835"/>
			<path style="fill:none;stroke:#263238;stroke-width:0.5;stroke-linecap:round;stroke-linejoin:round;stroke-miterlimit:10;" d="
				M386.236,100.905c0,0-31.291-5.135-39.992-1.066c-8.701,4.069-11.281,14.638-11.281,14.638"/>
			<path style="fill:none;stroke:#263238;stroke-width:0.5;stroke-linecap:round;stroke-linejoin:round;stroke-miterlimit:10;" d="
				M429.727,92.76c6.46-0.357,8.004,0.951,8.004,0.951"/>
			<path style="fill:none;stroke:#263238;stroke-width:0.5;stroke-linecap:round;stroke-linejoin:round;stroke-miterlimit:10;" d="
				M358.501,146.245c0,0-2.287-9.254,5.369-19.837c7.656-10.582,23.128-22.419,23.128-22.419s27.39-8.667,38.221-10.7"/>
			<path style="fill:none;stroke:#263238;stroke-width:0.5;stroke-linecap:round;stroke-linejoin:round;stroke-miterlimit:10;" d="
				M394.712,94.303c-4.237,5.403-7.714,9.687-7.714,9.687"/>
			<path style="fill:none;stroke:#263238;stroke-width:0.5;stroke-linecap:round;stroke-linejoin:round;stroke-miterlimit:10;" d="
				M422.363,61.542c-4.984,4.056-11.176,9.578-13.76,13.859c-2.105,3.487-6.74,9.685-11.178,15.421"/>
			<path style="fill:none;stroke:#263238;stroke-width:0.5;stroke-linecap:round;stroke-linejoin:round;stroke-miterlimit:10;" d="
				M429.543,56.006c0,0-1.75,1.257-4.267,3.217"/>
			<path style="fill:none;stroke:#263238;stroke-width:0.5;stroke-linecap:round;stroke-linejoin:round;stroke-miterlimit:10;" d="
				M390.022,106.177c0,0,27.875,10.493,32.275,14.598c4.4,4.104,7.154,7.939,7.154,7.939"/>
			<path style="fill:none;stroke:#263238;stroke-width:0.5;stroke-linecap:round;stroke-linejoin:round;stroke-miterlimit:10;" d="
				M388.604,116.793c-0.189,5.192-0.094,11.867,1.211,16.409c2.422,8.431,6.281,15.829,6.281,15.829"/>
			<path style="fill:none;stroke:#263238;stroke-width:0.5;stroke-linecap:round;stroke-linejoin:round;stroke-miterlimit:10;" d="
				M389.137,108.991c0,0-0.215,1.947-0.389,4.838"/>
		</g>
	</g>
</g>
<g id="Device_3">
	<g>
		<g>
			<path style="fill:none;stroke:#263238;stroke-width:6;stroke-linecap:round;stroke-linejoin:round;stroke-miterlimit:10;" d="
				M293.819,187.214h127.153c10.587,0,19.169,8.582,19.169,19.169v0c0,10.587-8.582,19.169-19.169,19.169h-20.11
				c-9.963,0-18.093,7.976-18.282,17.938l-0.659,55.244"/>
			<polygon style="fill:#263238;stroke:#263238;stroke-linecap:round;stroke-linejoin:round;stroke-miterlimit:10;" points="
				387.084,299.836 387.084,287.952 376.986,287.952 376.986,299.836 372.474,304.697 372.474,325.909 391.596,325.909 
				391.596,304.697 			"/>
			<polygon style="fill:#263238;stroke:#263238;stroke-linecap:round;stroke-linejoin:round;stroke-miterlimit:10;" points="
				285.505,192.66 297.388,192.66 297.388,182.562 285.505,182.562 280.643,178.05 259.432,178.05 259.432,197.172 280.643,197.172 
							"/>
		</g>
		<g>
			<path style="fill:#92E3A9;stroke:#263238;stroke-linecap:round;stroke-linejoin:round;stroke-miterlimit:10;" d="
				M427.757,481.337h-91.443c-4.354,0-7.883-3.529-7.883-7.883V333.726c0-4.354,3.529-7.883,7.883-7.883h91.443
				c4.354,0,7.883,3.53,7.883,7.883v139.728C435.64,477.808,432.11,481.337,427.757,481.337z"/>
			<path style="fill:#92E3A9;stroke:#263238;stroke-linecap:round;stroke-linejoin:round;stroke-miterlimit:10;" d="
				M426.345,328.282h-31.25v-2.377h-25.812v2.377h-31.559c-4.354,0-7.883,3.52-7.883,7.863v135.283c0,4.342,3.53,7.863,7.883,7.863
				h88.621c4.354,0,7.883-3.52,7.883-7.863V336.145C434.229,331.802,430.699,328.282,426.345,328.282z"/>
		</g>
	</g>
</g>
<g id="Device_2">
	<g>
		<path style="fill:#FFFFFF;stroke:#263238;stroke-linecap:round;stroke-linejoin:round;stroke-miterlimit:10;" d="M248.706,140.793
			H64.359c-5.891,0-10.667,4.776-10.667,10.667v118.104c0,6.443,5.223,11.667,11.667,11.667h76.558l0.215-2.078h27.695l0.215,2.078
			h77.664c6.443,0,11.667-5.223,11.667-11.667V151.46C259.372,145.568,254.597,140.793,248.706,140.793z"/>
		<path style="fill:#FFFFFF;stroke:#263238;stroke-linecap:round;stroke-linejoin:round;stroke-miterlimit:10;" d="M184.723,272.267
			h-57.488c-1.595,0-2.888-1.293-2.888-2.888v-35.073c0-1.595,1.293-2.889,2.888-2.889h57.488c1.595,0,2.888,1.293,2.888,2.889
			v35.073C187.612,270.974,186.319,272.267,184.723,272.267z"/>
		<g>
			<rect x="119.761" y="154.615" style="fill:#263238;" width="11.579" height="7.606"/>
			<rect x="83.081" y="201.53" style="fill:#263238;" width="10.75" height="10.665"/>
			<rect x="130.485" y="164.049" style="fill:#263238;" width="10.832" height="10.665"/>
			<rect x="106.353" y="154.615" style="fill:#263238;" width="11.579" height="7.606"/>
			<rect x="143.146" y="164.049" style="fill:#263238;" width="10.832" height="10.665"/>
			<rect x="133.169" y="154.615" style="fill:#263238;" width="11.579" height="7.606"/>
			<rect x="66.962" y="189.036" style="fill:#263238;" width="20.373" height="10.665"/>
			<rect x="105.164" y="164.049" style="fill:#263238;" width="10.832" height="10.665"/>
			<rect x="66.962" y="201.53" style="fill:#263238;" width="14.291" height="10.665"/>
			<rect x="146.576" y="154.615" style="fill:#263238;" width="11.579" height="7.606"/>
			<rect x="79.843" y="164.049" style="fill:#263238;" width="10.832" height="10.665"/>
			<rect x="79.538" y="154.615" style="fill:#263238;" width="11.579" height="7.606"/>
			<rect x="92.946" y="154.615" style="fill:#263238;" width="11.579" height="7.606"/>
			<rect x="92.503" y="164.049" style="fill:#263238;" width="10.832" height="10.665"/>
			<rect x="117.825" y="164.049" style="fill:#263238;" width="10.832" height="10.665"/>
			<rect x="200.207" y="154.615" style="fill:#263238;" width="11.579" height="7.606"/>
			<rect x="213.615" y="154.615" style="fill:#263238;" width="11.579" height="7.606"/>
			<rect x="206.449" y="164.049" style="fill:#263238;" width="10.832" height="10.665"/>
			<rect x="219.11" y="164.049" style="fill:#263238;" width="10.832" height="10.665"/>
			<rect x="234.023" y="201.53" style="fill:#263238;" width="15.949" height="10.665"/>
			<rect x="227.022" y="154.615" style="fill:#263238;" width="11.579" height="7.606"/>
			<rect x="66.962" y="164.049" style="fill:#263238;" width="11.052" height="10.665"/>
			<rect x="159.984" y="154.615" style="fill:#263238;" width="11.579" height="7.606"/>
			<rect x="173.392" y="154.615" style="fill:#263238;" width="11.579" height="7.606"/>
			<rect x="168.467" y="164.049" style="fill:#263238;" width="10.832" height="10.665"/>
			<rect x="193.788" y="164.049" style="fill:#263238;" width="10.832" height="10.665"/>
			<rect x="155.807" y="164.049" style="fill:#263238;" width="10.832" height="10.665"/>
			<rect x="181.128" y="164.049" style="fill:#263238;" width="10.832" height="10.665"/>
			<rect x="186.799" y="154.615" style="fill:#263238;" width="11.579" height="7.606"/>
			<rect x="171.131" y="201.53" style="fill:#263238;" width="10.75" height="10.665"/>
			<rect x="227.527" y="189.036" style="fill:#263238;" width="10.75" height="10.665"/>
			<rect x="214.948" y="189.036" style="fill:#263238;" width="10.75" height="10.665"/>
			<rect x="221.445" y="201.53" style="fill:#263238;" width="10.75" height="10.665"/>
			<rect x="208.866" y="201.53" style="fill:#263238;" width="10.75" height="10.665"/>
			<rect x="183.709" y="201.53" style="fill:#263238;" width="10.75" height="10.665"/>
			<rect x="196.288" y="201.53" style="fill:#263238;" width="10.75" height="10.665"/>
			<rect x="202.37" y="189.036" style="fill:#263238;" width="10.75" height="10.665"/>
			<rect x="189.791" y="189.036" style="fill:#263238;" width="10.75" height="10.665"/>
			<rect x="240.43" y="154.615" style="fill:#263238;" width="9.543" height="7.606"/>
			<rect x="66.962" y="154.615" style="fill:#263238;" width="10.748" height="7.606"/>
			<g>
				<rect x="195.406" y="214.023" style="fill:#263238;" width="17.576" height="11.087"/>
				<rect x="84.093" y="214.023" style="fill:#263238;" width="12.168" height="11.087"/>
				<rect x="98.514" y="214.023" style="fill:#263238;" width="12.168" height="11.087"/>
				<rect x="112.935" y="214.023" style="fill:#263238;" width="80.218" height="11.087"/>
				<rect x="232.065" y="214.023" style="fill:#263238;" width="17.908" height="11.087"/>
				<rect x="215.236" y="214.023" style="fill:#263238;" width="14.576" height="11.087"/>
				<rect x="66.962" y="214.023" style="fill:#263238;" width="14.877" height="11.087"/>
			</g>
			<rect x="231.77" y="164.049" style="fill:#263238;" width="18.202" height="10.665"/>
			<rect x="240.105" y="189.036" style="fill:#263238;" width="9.867" height="10.665"/>
			<polygon style="fill:#263238;" points="237.064,187.13 235.236,187.13 235.236,176.543 224.486,176.543 224.486,187.13 
				222.658,187.13 222.658,176.543 211.907,176.543 211.907,187.13 210.079,187.13 210.079,176.543 199.329,176.543 199.329,187.13 
				197.5,187.13 197.5,176.543 186.75,176.543 186.75,187.13 184.922,187.13 184.922,176.543 174.172,176.543 174.172,187.13 
				172.343,187.13 172.343,176.543 161.593,176.543 161.593,187.13 159.765,187.13 159.765,176.543 149.015,176.543 149.015,187.13 
				147.186,187.13 147.186,176.543 136.436,176.543 136.436,187.13 134.608,187.13 134.608,176.543 123.858,176.543 123.858,187.13 
				122.029,187.13 122.029,176.543 111.279,176.543 111.279,187.13 109.451,187.13 109.451,176.543 98.701,176.543 98.701,187.13 
				96.872,187.13 96.872,176.543 86.122,176.543 86.122,187.13 84.294,187.13 84.294,176.543 66.962,176.543 66.962,187.208 
				249.973,187.208 249.973,176.543 237.064,176.543 			"/>
			<rect x="139.477" y="189.036" style="fill:#263238;" width="10.75" height="10.665"/>
			<rect x="177.213" y="189.036" style="fill:#263238;" width="10.75" height="10.665"/>
			<rect x="114.32" y="189.036" style="fill:#263238;" width="10.75" height="10.665"/>
			<rect x="120.817" y="201.53" style="fill:#263238;" width="10.75" height="10.665"/>
			<rect x="126.898" y="189.036" style="fill:#263238;" width="10.75" height="10.665"/>
			<rect x="101.742" y="189.036" style="fill:#263238;" width="10.75" height="10.665"/>
			<rect x="95.66" y="201.53" style="fill:#263238;" width="10.75" height="10.665"/>
			<rect x="108.238" y="201.53" style="fill:#263238;" width="10.75" height="10.665"/>
			<rect x="152.056" y="189.036" style="fill:#263238;" width="10.75" height="10.665"/>
			<rect x="158.552" y="201.53" style="fill:#263238;" width="10.75" height="10.665"/>
			<rect x="164.634" y="189.036" style="fill:#263238;" width="10.75" height="10.665"/>
			<rect x="133.395" y="201.53" style="fill:#263238;" width="10.75" height="10.665"/>
			<rect x="145.974" y="201.53" style="fill:#263238;" width="10.75" height="10.665"/>
			<rect x="89.163" y="189.036" style="fill:#263238;" width="10.75" height="10.665"/>
		</g>
		<path style="fill:#263238;stroke:#263238;stroke-linecap:round;stroke-linejoin:round;stroke-miterlimit:10;" d="M271.119,34.053
			H40.84c-4.84,0-9.456,2.272-8.201,8.687l17.931,90.071c0.863,4.412,3.778,7.479,7.107,7.479h23.5v5.924h150.71v-5.924h22.395
			c3.329,0,6.243-3.067,7.107-7.479l17.785-89.741C280.429,36.655,275.959,34.053,271.119,34.053z"/>
		<polygon style="fill:#92E3A9;stroke:#263238;stroke-linecap:round;stroke-linejoin:round;stroke-miterlimit:10;" points="
			245.076,132.703 66.883,132.703 49.064,44.677 262.895,44.677 		"/>
	</g>
	<g>
		<polygon style="fill:#FFFFFF;stroke:#263238;stroke-linecap:round;stroke-linejoin:round;stroke-miterlimit:10;" points="
			216.916,127.556 92.721,127.556 81.079,51.849 228.557,51.849 		"/>
		<polygon style="fill:#FFFFFF;stroke:#263238;stroke-linecap:round;stroke-linejoin:round;stroke-miterlimit:10;" points="
			216.916,127.556 124.944,127.556 119.344,51.849 228.557,51.849 		"/>
		
			<line style="fill:none;stroke:#263238;stroke-linecap:round;stroke-linejoin:round;stroke-miterlimit:10;" x1="91.165" y1="68.162" x2="113.393" y2="68.162"/>
		
			<line style="fill:none;stroke:#263238;stroke-linecap:round;stroke-linejoin:round;stroke-miterlimit:10;" x1="92.059" y1="74.665" x2="113.975" y2="74.665"/>
		
			<line style="fill:none;stroke:#263238;stroke-linecap:round;stroke-linejoin:round;stroke-miterlimit:10;" x1="92.928" y1="80.989" x2="114.541" y2="80.989"/>
		
			<line style="fill:none;stroke:#263238;stroke-linecap:round;stroke-linejoin:round;stroke-miterlimit:10;" x1="93.773" y1="87.14" x2="115.091" y2="87.14"/>
		
			<line style="fill:none;stroke:#263238;stroke-linecap:round;stroke-linejoin:round;stroke-miterlimit:10;" x1="94.596" y1="93.125" x2="115.626" y2="93.125"/>
		<g>
			
				<line style="fill:none;stroke:#263238;stroke-linecap:round;stroke-linejoin:round;stroke-miterlimit:10;" x1="100.202" y1="106.981" x2="116.865" y2="106.981"/>
			<path style="fill:none;stroke:#263238;stroke-linecap:round;stroke-linejoin:round;stroke-miterlimit:10;" d="M98.51,106.981
				c0.08,0.605-0.592,1.094-1.5,1.094c-0.909,0-1.714-0.489-1.799-1.094c-0.085-0.606,0.586-1.099,1.5-1.099
				S98.429,106.375,98.51,106.981z"/>
		</g>
		<g>
			
				<line style="fill:none;stroke:#263238;stroke-linecap:round;stroke-linejoin:round;stroke-miterlimit:10;" x1="100.774" y1="111.423" x2="117.262" y2="111.423"/>
			<path style="fill:none;stroke:#263238;stroke-linecap:round;stroke-linejoin:round;stroke-miterlimit:10;" d="M99.099,111.423
				c0.079,0.592-0.587,1.071-1.486,1.071c-0.899,0-1.695-0.479-1.779-1.071c-0.083-0.594,0.582-1.076,1.486-1.076
				S99.021,110.829,99.099,111.423z"/>
		</g>
		<g>
			
				<line style="fill:none;stroke:#263238;stroke-linecap:round;stroke-linejoin:round;stroke-miterlimit:10;" x1="101.334" y1="115.773" x2="117.651" y2="115.773"/>
			<path style="fill:none;stroke:#263238;stroke-linecap:round;stroke-linejoin:round;stroke-miterlimit:10;" d="M99.676,115.773
				c0.077,0.58-0.582,1.049-1.472,1.049c-0.89,0-1.677-0.469-1.759-1.049c-0.082-0.582,0.577-1.054,1.472-1.054
				C98.811,114.718,99.599,115.191,99.676,115.773z"/>
		</g>
		<g>
			
				<line style="fill:none;stroke:#263238;stroke-linecap:round;stroke-linejoin:round;stroke-miterlimit:10;" x1="101.882" y1="120.033" x2="118.032" y2="120.033"/>
			<path style="fill:none;stroke:#263238;stroke-linecap:round;stroke-linejoin:round;stroke-miterlimit:10;" d="M100.242,120.033
				c0.075,0.568-0.578,1.027-1.459,1.027c-0.881,0-1.66-0.459-1.739-1.027c-0.08-0.57,0.573-1.033,1.458-1.033
				C99.387,119.001,100.166,119.464,100.242,120.033z"/>
		</g>
		<g>
			<g>
				<polygon style="fill:#92E3A9;stroke:#263238;stroke-linecap:round;stroke-linejoin:round;stroke-miterlimit:10;" points="
					132.473,67.775 132.422,66.705 125.735,66.705 125.802,67.775 126.263,75.15 126.365,76.78 143.841,76.78 143.623,67.775 				
					"/>
				<polygon style="fill:#92E3A9;stroke:#263238;stroke-linecap:round;stroke-linejoin:round;stroke-miterlimit:10;" points="
					143.841,76.78 126.365,76.78 125.912,69.535 143.666,69.535 				"/>
			</g>
			<g>
				<polygon style="fill:#92E3A9;stroke:#263238;stroke-linecap:round;stroke-linejoin:round;stroke-miterlimit:10;" points="
					157.022,67.775 157.027,66.705 150.34,66.705 150.351,67.775 150.422,75.15 150.437,76.78 167.913,76.78 168.172,67.775 				"/>
				<polygon style="fill:#92E3A9;stroke:#263238;stroke-linecap:round;stroke-linejoin:round;stroke-miterlimit:10;" points="
					167.913,76.78 150.437,76.78 150.368,69.535 168.122,69.535 				"/>
			</g>
			<g>
				<polygon style="fill:#92E3A9;stroke:#263238;stroke-linecap:round;stroke-linejoin:round;stroke-miterlimit:10;" points="
					181.571,67.775 181.633,66.705 174.946,66.705 174.899,67.775 174.58,75.15 174.509,76.78 191.985,76.78 192.721,67.775 				"/>
				<polygon style="fill:#92E3A9;stroke:#263238;stroke-linecap:round;stroke-linejoin:round;stroke-miterlimit:10;" points="
					191.985,76.78 174.509,76.78 174.823,69.535 192.577,69.535 				"/>
			</g>
			<g>
				<polygon style="fill:#92E3A9;stroke:#263238;stroke-linecap:round;stroke-linejoin:round;stroke-miterlimit:10;" points="
					206.12,67.775 206.238,66.705 199.551,66.705 199.448,67.775 198.738,75.15 198.581,76.78 216.057,76.78 217.27,67.775 				"/>
				<polygon style="fill:#92E3A9;stroke:#263238;stroke-linecap:round;stroke-linejoin:round;stroke-miterlimit:10;" points="
					216.057,76.78 198.581,76.78 199.279,69.535 217.033,69.535 				"/>
			</g>
		</g>
		<g>
			<g>
				<polygon style="fill:#92E3A9;stroke:#263238;stroke-linecap:round;stroke-linejoin:round;stroke-miterlimit:10;" points="
					133.226,83.402 133.178,82.403 126.717,82.403 126.78,83.402 127.211,90.292 127.306,91.816 144.204,91.816 144.001,83.402 				
					"/>
				<polygon style="fill:#92E3A9;stroke:#263238;stroke-linecap:round;stroke-linejoin:round;stroke-miterlimit:10;" points="
					144.204,91.816 127.306,91.816 126.883,85.046 144.041,85.046 				"/>
			</g>
			<g>
				<polygon style="fill:#92E3A9;stroke:#263238;stroke-linecap:round;stroke-linejoin:round;stroke-miterlimit:10;" points="
					156.948,83.402 156.952,82.403 150.492,82.403 150.501,83.402 150.568,90.292 150.582,91.816 167.48,91.816 167.722,83.402 				
					"/>
				<polygon style="fill:#92E3A9;stroke:#263238;stroke-linecap:round;stroke-linejoin:round;stroke-miterlimit:10;" points="
					167.48,91.816 150.582,91.816 150.517,85.046 167.675,85.046 				"/>
			</g>
			<g>
				<polygon style="fill:#92E3A9;stroke:#263238;stroke-linecap:round;stroke-linejoin:round;stroke-miterlimit:10;" points="
					180.669,83.402 180.727,82.403 174.266,82.403 174.223,83.402 173.924,90.292 173.858,91.816 190.756,91.816 191.444,83.402 
									"/>
				<polygon style="fill:#92E3A9;stroke:#263238;stroke-linecap:round;stroke-linejoin:round;stroke-miterlimit:10;" points="
					190.756,91.816 173.858,91.816 174.151,85.046 191.309,85.046 				"/>
			</g>
			<g>
				<polygon style="fill:#92E3A9;stroke:#263238;stroke-linecap:round;stroke-linejoin:round;stroke-miterlimit:10;" points="
					204.39,83.402 204.501,82.403 198.04,82.403 197.944,83.402 197.281,90.292 197.134,91.816 214.032,91.816 215.165,83.402 				
					"/>
				<polygon style="fill:#92E3A9;stroke:#263238;stroke-linecap:round;stroke-linejoin:round;stroke-miterlimit:10;" points="
					214.032,91.816 197.134,91.816 197.786,85.046 214.943,85.046 				"/>
			</g>
		</g>
		<g>
			<g>
				<polygon style="fill:#92E3A9;stroke:#263238;stroke-linecap:round;stroke-linejoin:round;stroke-miterlimit:10;" points="
					133.93,98.01 133.885,97.075 127.636,97.075 127.694,98.01 128.098,104.461 128.187,105.889 144.544,105.889 144.354,98.01 				
					"/>
				<polygon style="fill:#92E3A9;stroke:#263238;stroke-linecap:round;stroke-linejoin:round;stroke-miterlimit:10;" points="
					144.544,105.889 128.187,105.889 127.79,99.549 144.391,99.549 				"/>
			</g>
			<g>
				<polygon style="fill:#92E3A9;stroke:#263238;stroke-linecap:round;stroke-linejoin:round;stroke-miterlimit:10;" points="
					156.878,98.01 156.883,97.075 150.633,97.075 150.642,98.01 150.704,104.461 150.718,105.889 167.074,105.889 167.301,98.01 
									"/>
				<polygon style="fill:#92E3A9;stroke:#263238;stroke-linecap:round;stroke-linejoin:round;stroke-miterlimit:10;" points="
					167.074,105.889 150.718,105.889 150.657,99.549 167.257,99.549 				"/>
			</g>
			<g>
				<polygon style="fill:#92E3A9;stroke:#263238;stroke-linecap:round;stroke-linejoin:round;stroke-miterlimit:10;" points="
					179.826,98.01 179.88,97.075 173.63,97.075 173.59,98.01 173.31,104.461 173.249,105.889 189.605,105.889 190.249,98.01 				"/>
				<polygon style="fill:#92E3A9;stroke:#263238;stroke-linecap:round;stroke-linejoin:round;stroke-miterlimit:10;" points="
					189.605,105.889 173.249,105.889 173.523,99.549 190.123,99.549 				"/>
			</g>
			<g>
				<polygon style="fill:#92E3A9;stroke:#263238;stroke-linecap:round;stroke-linejoin:round;stroke-miterlimit:10;" points="
					202.774,98.01 202.878,97.075 196.628,97.075 196.538,98.01 195.917,104.461 195.779,105.889 212.136,105.889 213.197,98.01 
									"/>
				<polygon style="fill:#92E3A9;stroke:#263238;stroke-linecap:round;stroke-linejoin:round;stroke-miterlimit:10;" points="
					212.136,105.889 195.779,105.889 196.39,99.549 212.99,99.549 				"/>
			</g>
		</g>
		<g>
			<g>
				<polygon style="fill:#92E3A9;stroke:#263238;stroke-linecap:round;stroke-linejoin:round;stroke-miterlimit:10;" points="
					134.59,111.695 134.548,110.819 128.496,110.819 128.551,111.695 128.929,117.748 129.013,119.089 144.863,119.089 
					144.684,111.695 				"/>
				<polygon style="fill:#92E3A9;stroke:#263238;stroke-linecap:round;stroke-linejoin:round;stroke-miterlimit:10;" points="
					144.863,119.089 129.013,119.089 128.641,113.138 144.719,113.138 				"/>
			</g>
			<g>
				<polygon style="fill:#92E3A9;stroke:#263238;stroke-linecap:round;stroke-linejoin:round;stroke-miterlimit:10;" points="
					156.813,111.695 156.817,110.819 150.765,110.819 150.774,111.695 150.832,117.748 150.845,119.089 166.694,119.089 
					166.907,111.695 				"/>
				<polygon style="fill:#92E3A9;stroke:#263238;stroke-linecap:round;stroke-linejoin:round;stroke-miterlimit:10;" points="
					166.694,119.089 150.845,119.089 150.788,113.138 166.866,113.138 				"/>
			</g>
			<g>
				<polygon style="fill:#92E3A9;stroke:#263238;stroke-linecap:round;stroke-linejoin:round;stroke-miterlimit:10;" points="
					179.036,111.695 179.087,110.819 173.035,110.819 172.997,111.695 172.735,117.748 172.677,119.089 188.526,119.089 
					189.13,111.695 				"/>
				<polygon style="fill:#92E3A9;stroke:#263238;stroke-linecap:round;stroke-linejoin:round;stroke-miterlimit:10;" points="
					188.526,119.089 172.677,119.089 172.935,113.138 189.012,113.138 				"/>
			</g>
			<g>
				<polygon style="fill:#92E3A9;stroke:#263238;stroke-linecap:round;stroke-linejoin:round;stroke-miterlimit:10;" points="
					201.26,111.695 201.357,110.819 195.305,110.819 195.22,111.695 194.638,117.748 194.509,119.089 210.358,119.089 
					211.354,111.695 				"/>
				<polygon style="fill:#92E3A9;stroke:#263238;stroke-linecap:round;stroke-linejoin:round;stroke-miterlimit:10;" points="
					210.358,119.089 194.509,119.089 195.081,113.138 211.159,113.138 				"/>
			</g>
		</g>
		<g>
			<polygon style="fill:#263238;stroke:#263238;stroke-linecap:round;stroke-linejoin:round;stroke-miterlimit:10;" points="
				227.122,61.183 82.515,61.183 81.079,51.849 228.557,51.849 			"/>
			<path style="fill:#FFFFFF;stroke:#263238;stroke-linecap:round;stroke-linejoin:round;stroke-miterlimit:10;" d="M206.814,56.357
				c-0.11,1.006-1.294,1.819-2.645,1.819s-2.365-0.813-2.265-1.819c0.1-1.011,1.285-1.833,2.646-1.833
				S206.924,55.347,206.814,56.357z"/>
			<path style="fill:#FFFFFF;stroke:#263238;stroke-linecap:round;stroke-linejoin:round;stroke-miterlimit:10;" d="M214.724,56.357
				c-0.127,1.006-1.324,1.819-2.675,1.819c-1.351,0-2.352-0.813-2.235-1.819c0.117-1.011,1.316-1.833,2.677-1.833
				C213.852,54.524,214.852,55.347,214.724,56.357z"/>
			<path style="fill:#FFFFFF;stroke:#263238;stroke-linecap:round;stroke-linejoin:round;stroke-miterlimit:10;" d="M222.635,56.357
				c-0.144,1.006-1.355,1.819-2.705,1.819c-1.351,0-2.338-0.813-2.205-1.819c0.134-1.011,1.346-1.833,2.707-1.833
				S222.779,55.347,222.635,56.357z"/>
		</g>
	</g>
</g>
<g id="Device_1">
	<g>
		
			<rect x="101.67" y="324.295" style="fill:#263238;stroke:#263238;stroke-linecap:round;stroke-linejoin:round;stroke-miterlimit:10;" width="109.782" height="157.042"/>
		<path style="fill:#707070;" d="M200.027,406.348v-44.261l-40.487-31.223l-17.842,1.201l-20.243-3.774c0,0-4.117,1.887-4.46,2.917
			c-0.343,1.029,0.343,1.544-1.716,3.603c-2.059,2.059-6.691,3.431-6.691,3.431s0.686,1.372-1.372,3.259
			c-2.059,1.887-1.887,2.573-0.343,2.917s2.916,0.858,2.402,2.23c-0.515,1.372-3.774,1.544-3.431,3.088
			c0.343,1.544,1.372,1.887,2.402,1.887c1.029,0,6.519,0.343,6.519,0.343v50.266l-1.544,2.745c0,0,1.201,4.289-1.544,8.235
			c-2.745,3.946-5.833,5.661-5.833,5.661v40.83L120.94,476h28.821h1.149c0.765-3.015,3.49-5.249,6.743-5.249
			c3.253,0,5.977,2.234,6.743,5.249h28.255l14.925-16.126v-44.09C207.575,415.784,200.199,415.441,200.027,406.348z"/>
		<g>
			<polygon style="fill:#FFFFFF;stroke:#263238;stroke-linecap:round;stroke-linejoin:round;stroke-miterlimit:10;" points="
				107.824,324.295 101.67,324.295 101.67,330.449 			"/>
			<polygon style="fill:#FFFFFF;stroke:#263238;stroke-linecap:round;stroke-linejoin:round;stroke-miterlimit:10;" points="
				211.452,329.218 211.452,324.295 206.529,324.295 			"/>
			<polygon style="fill:#FFFFFF;stroke:#263238;stroke-linecap:round;stroke-linejoin:round;stroke-miterlimit:10;" points="
				101.67,474.876 101.67,481.337 108.131,481.337 			"/>
			<polygon style="fill:#FFFFFF;stroke:#263238;stroke-linecap:round;stroke-linejoin:round;stroke-miterlimit:10;" points="
				204.683,481.337 211.452,481.337 211.452,474.568 			"/>
		</g>
		<path style="fill:#FFFFFF;stroke:#263238;stroke-linecap:round;stroke-linejoin:round;stroke-miterlimit:10;" d="M190.775,344.233
			l7.164-4.442c2.834-1.757,6.558-0.869,8.294,1.978l0,0c1.678,2.752,0.885,6.337-1.796,8.125l-6.435,4.291L190.775,344.233z"/>
		<path style="fill:#FFFFFF;stroke:#263238;stroke-linecap:round;stroke-linejoin:round;stroke-miterlimit:10;" d="M115.278,409.608
			c0,0,0,1.201-2.059,3.946c-2.059,2.745-3.384,3.236-4.117,4.975c-0.785,1.863,1.658,4.599,3.774,3.774
			c2.796-1.089,4.289-5.661,5.833-6.004s2.23,2.916,3.946,3.26c1.715,0.343,3.259-1.887,3.259-1.887l-10.465-10.465L115.278,409.608
			z"/>
		<g>
			
				<circle style="fill:#FFFFFF;stroke:#263238;stroke-linecap:round;stroke-linejoin:round;stroke-miterlimit:10;" cx="156.561" cy="378.694" r="51.449"/>
			
				<ellipse transform="matrix(0.9736 -0.2282 0.2282 0.9736 -82.2777 45.7127)" style="fill:#FFFFFF;stroke:#263238;stroke-linecap:round;stroke-linejoin:round;stroke-miterlimit:10;" cx="156.561" cy="378.694" rx="16.16" ry="16.16"/>
			<path style="fill:#FFFFFF;stroke:#263238;stroke-linecap:round;stroke-linejoin:round;stroke-miterlimit:10;" d="
				M161.976,378.694c0-2.991-2.424-5.415-5.415-5.415c-2.991,0-5.415,2.424-5.415,5.415c0,2.991,2.424,5.415,5.415,5.415
				C159.552,384.109,161.976,381.684,161.976,378.694z"/>
		</g>
		<path style="fill:#FFFFFF;stroke:#263238;stroke-linecap:round;stroke-linejoin:round;stroke-miterlimit:10;" d="M208.948,408.75
			c0-0.947-0.768-1.716-1.716-1.716c-0.948,0-1.716,0.768-1.716,1.716c0,0.947,0.768,1.716,1.716,1.716
			C208.18,410.466,208.948,409.698,208.948,408.75z"/>
		<path style="fill:#FFFFFF;stroke:#263238;stroke-linecap:round;stroke-linejoin:round;stroke-miterlimit:10;" d="M108.073,408.75
			c0-0.947-0.768-1.716-1.716-1.716s-1.716,0.768-1.716,1.716c0,0.947,0.768,1.716,1.716,1.716S108.073,409.698,108.073,408.75z"/>
		<path style="fill:#FFFFFF;stroke:#263238;stroke-linecap:round;stroke-linejoin:round;stroke-miterlimit:10;" d="M208.948,474.799
			c0-0.947-0.768-1.716-1.716-1.716c-0.948,0-1.716,0.768-1.716,1.716c0,0.947,0.768,1.716,1.716,1.716
			C208.18,476.515,208.948,475.747,208.948,474.799z"/>
		<path style="fill:#FFFFFF;stroke:#263238;stroke-linecap:round;stroke-linejoin:round;stroke-miterlimit:10;" d="M159.368,477.716
			c0-0.948-0.768-1.716-1.716-1.716s-1.715,0.768-1.715,1.716c0,0.947,0.768,1.716,1.715,1.716S159.368,478.663,159.368,477.716z"/>
		<path style="fill:#FFFFFF;stroke:#263238;stroke-linecap:round;stroke-linejoin:round;stroke-miterlimit:10;" d="M108.073,474.799
			c0-0.947-0.768-1.716-1.716-1.716s-1.716,0.768-1.716,1.716c0,0.947,0.768,1.716,1.716,1.716S108.073,475.747,108.073,474.799z"/>
		
			<circle style="fill:#FFFFFF;stroke:#263238;stroke-linecap:round;stroke-linejoin:round;stroke-miterlimit:10;" cx="207.232" cy="330.864" r="1.716"/>
		
			<circle style="fill:#FFFFFF;stroke:#263238;stroke-linecap:round;stroke-linejoin:round;stroke-miterlimit:10;" cx="106.358" cy="330.864" r="1.716"/>
		<path style="fill:#FFFFFF;stroke:#263238;stroke-linecap:round;stroke-linejoin:round;stroke-miterlimit:10;" d="M177.896,398.8
			c-1.137,0-2.059,0.922-2.059,2.059c0,0.464,0.159,0.888,0.418,1.232l-3.163,1.513l-37.742,29.164l-4.46,1.716l-0.858,5.147
			c0,0,6.176,0.343,8.406,2.402c2.23,2.059,4.289,9.779,4.289,9.779l3.088,0.172l30.365-45.805l0.713-3.531
			c0.298,0.168,0.637,0.271,1.003,0.271c1.137,0,2.059-0.922,2.059-2.059S179.033,398.8,177.896,398.8z"/>
		<path style="fill:#FFFFFF;stroke:#263238;stroke-linecap:round;stroke-linejoin:round;stroke-miterlimit:10;" d="M149.59,437.228
			c0-3.032-2.458-5.49-5.49-5.49c-3.032,0-5.49,2.458-5.49,5.49c0,3.032,2.458,5.49,5.49,5.49
			C147.132,442.718,149.59,440.26,149.59,437.228z"/>
		
			<circle style="fill:#FFFFFF;stroke:#263238;stroke-linecap:round;stroke-linejoin:round;stroke-miterlimit:10;" cx="144.1" cy="437.228" r="0.939"/>
		<g>
			<path style="fill:#FFFFFF;stroke:#263238;stroke-linecap:round;stroke-linejoin:round;stroke-miterlimit:10;" d="M109.96,426.592
				v30.213c0,6.527,5.291,11.818,11.818,11.818h26.782l3.774-2.059h4.975V450.61c0,0-2.573-1.716-4.117-1.716
				c-1.544,0-4.117,0.343-5.318,1.201c-1.201,0.858-2.23,1.544-3.774,1.201c-1.544-0.343-12.523-11.666-12.523-11.666l-0.686-8.749
				v-4.632l-11.323-6.862l-3.603,6.519L109.96,426.592z"/>
			<path style="fill:#FFFFFF;stroke:#263238;stroke-linecap:round;stroke-linejoin:round;stroke-miterlimit:10;" d="
				M152.163,457.129c0,0.947-0.768,1.716-1.715,1.716c-0.948,0-1.716-0.768-1.716-1.716c0-0.947,0.768-1.716,1.716-1.716
				C151.395,455.413,152.163,456.181,152.163,457.129z"/>
			<path style="fill:#FFFFFF;stroke:#263238;stroke-linecap:round;stroke-linejoin:round;stroke-miterlimit:10;" d="M125.743,429.68
				c0,0.948-0.768,1.716-1.716,1.716c-0.947,0-1.715-0.768-1.715-1.716c0-0.947,0.768-1.715,1.715-1.715
				C124.975,427.965,125.743,428.733,125.743,429.68z"/>
		</g>
		<path style="fill:#FFFFFF;stroke:#263238;stroke-linecap:round;stroke-linejoin:round;stroke-miterlimit:10;" d="M194.192,416.125
			c0.55-0.533,1.165-1.027,1.89-1.273c0.725-0.246,1.582-0.208,2.193,0.254c0.74,0.56,0.955,1.616,0.763,2.524
			c-0.192,0.908-0.717,1.705-1.236,2.474c1.266,0.465,2.39,1.255,3.644,1.752c1.254,0.498,2.767,0.663,3.885-0.091
			c1.242-0.838,1.557-2.773,0.643-3.961c-0.612-0.796-1.595-1.191-2.477-1.672c-2.361-1.286-3.663-3.224-5.085-5.389
			C196.692,412.171,195.808,414.561,194.192,416.125z"/>
		<path style="fill:#575757;" d="M194.192,416.125l-22.472,20.761l4.632,3.774l-15.783,17.67l17.67,15.44l12.18-2.745l16.813-20.415
			l-8.578-7.377l5.833-5.318l-0.172-13.896l-7.72-3.946c0,0,1.987-3.757,1.68-4.967
			C197.968,413.897,194.533,415.093,194.192,416.125z"/>
	</g>
</g>
</svg>
